Coordinates
version=1
nRows=19
nColumns=63
inDegrees=yes

Units are S.I. units (second, meters, Newtons, ...)
If the header above contains a line with 'inDegrees', this indicates whether rotational values are in degrees (yes) or radians (no).

endheader
time	pelvis_tilt	pelvis_list	pelvis_rotation	pelvis_tx	pelvis_ty	pelvis_tz	hip_flexion_r	hip_adduction_r	hip_rotation_r	knee_angle_r	knee_angle_r_beta	ankle_angle_r	subtalar_angle_r	mtp_angle_r	hip_flexion_l	hip_adduction_l	hip_rotation_l	knee_angle_l	knee_angle_l_beta	ankle_angle_l	subtalar_angle_l	mtp_angle_l	L5_S1_Flex_Ext	L5_S1_Lat_Bending	L5_S1_axial_rotation	L4_L5_Flex_Ext	L4_L5_Lat_Bending	L4_L5_axial_rotation	L3_L4_Flex_Ext	L3_L4_Lat_Bending	L3_L4_axial_rotation	L2_L3_Flex_Ext	L2_L3_Lat_Bending	L2_L3_axial_rotation	L1_L2_Flex_Ext	L1_L2_Lat_Bending	L1_L2_axial_rotation	L1_T12_Flex_Ext	L1_T12_Lat_Bending	L1_T12_axial_rotation	Abs_r3	Abs_r2	Abs_r1	Abs_t1	Abs_t2	neck_flexion	neck_bending	neck_rotation	arm_flex_r	arm_add_r	arm_rot_r	elbow_flex_r	pro_sup_r	wrist_flex_r	wrist_dev_r	arm_flex_l	arm_add_l	arm_rot_l	elbow_flex_l	pro_sup_l	wrist_flex_l	wrist_dev_l
0.905660	-3.266637	-2.715766	92.030528	0.161304	0.896632	0.586783	1.988286	-4.710744	-1.991573	5.767444	0.100661	18.871841	7.012654	0.000000	3.226414	2.101585	-9.189720	6.941667	0.121155	21.201839	10.513987	0.000000	-0.129546	-0.403038	-0.154182	-0.240580	-0.536041	-0.163818	-0.212831	-0.979947	-0.163818	-0.148058	-0.979947	-0.134909	-0.120297	-0.821875	-0.125273	-0.074023	-0.624306	-0.115636	-0.925335	-4.559246	-0.857512	0.000000	0.000000	22.961326	7.246015	7.207939	15.975849	-12.934456	2.383957	106.642711	78.083979	-1.606153	3.593746	6.546539	-21.001509	37.575277	40.483268	88.420856	-16.134508	1.434781
0.924528	-3.326569	-2.633183	92.536264	0.161016	0.896640	0.586356	1.702724	-4.763137	-2.489301	5.584883	0.097475	18.921225	7.012848	0.000000	3.188503	2.171184	-8.717684	7.009467	0.122338	21.187367	10.348960	0.000000	-0.140450	-0.414331	-0.201487	-0.260829	-0.551060	-0.214080	-0.230745	-1.007403	-0.214080	-0.160520	-1.007403	-0.176301	-0.130422	-0.844903	-0.163708	-0.080253	-0.641798	-0.151115	-1.003218	-4.686991	-1.120608	0.000000	0.000000	22.688756	7.374720	6.989056	15.263215	-13.428816	2.913800	110.096677	79.093049	0.692462	1.780007	6.397288	-21.065706	37.030641	39.974379	88.248973	-13.869761	3.918260
0.943396	-3.376825	-2.579107	93.079203	0.160614	0.896659	0.585979	1.440144	-4.802634	-2.833526	5.372704	0.093771	18.971610	6.837543	0.000000	3.198101	2.239392	-8.193089	7.107050	0.124041	21.091911	10.084808	0.000000	-0.149458	-0.423390	-0.251084	-0.277559	-0.563109	-0.266777	-0.245545	-1.029430	-0.266777	-0.170816	-1.029430	-0.219699	-0.138787	-0.863377	-0.204006	-0.085400	-0.655831	-0.188313	-1.067566	-4.789471	-1.396455	0.000000	0.000000	22.458270	7.486737	6.804500	14.512755	-13.922642	3.485310	113.155154	80.026282	2.798677	0.263860	6.256772	-21.154635	36.557423	39.552760	88.098710	-11.870024	5.932048
0.962264	-3.411128	-2.556591	93.642438	0.160145	0.896667	0.585686	1.210095	-4.820113	-3.034435	5.137963	0.089674	19.017255	6.515707	0.000000	3.259482	2.293988	-7.644265	7.232216	0.126226	20.932183	9.769528	0.000000	-0.156016	-0.430323	-0.296345	-0.289737	-0.572330	-0.314867	-0.256319	-1.046288	-0.314867	-0.178311	-1.046288	-0.259302	-0.144876	-0.877515	-0.240781	-0.089148	-0.666571	-0.222259	-1.114406	-4.867902	-1.648185	0.000000	0.000000	22.287943	7.577321	6.630260	13.742803	-14.353637	3.970006	115.757710	80.807589	4.724649	-0.762831	6.172015	-21.277704	36.266464	39.212344	87.981183	-10.190832	7.494523
0.981132	-3.434955	-2.565106	94.163508	0.159661	0.896652	0.585453	1.028228	-4.823567	-3.060217	4.905405	0.085615	19.060364	6.074741	0.000000	3.353108	2.340448	-7.136874	7.358462	0.128429	20.722157	9.433552	0.000000	-0.158883	-0.435771	-0.329789	-0.295062	-0.579575	-0.350401	-0.261029	-1.059533	-0.350401	-0.181587	-1.059533	-0.288565	-0.147539	-0.888624	-0.267954	-0.090786	-0.675009	-0.247342	-1.134886	-4.929525	-1.834188	0.000000	0.000000	22.195580	7.637072	6.447849	12.988149	-14.713728	4.362530	117.824682	81.481883	6.326932	-1.443889	6.113002	-21.405611	36.153823	38.939974	87.901390	-8.995997	8.526310
1.000000	-3.471943	-2.597038	94.605444	0.159249	0.896611	0.585260	0.893456	-4.835888	-2.897468	4.693905	0.081924	19.107241	5.532279	0.000000	3.459696	2.401302	-6.694509	7.470907	0.130392	20.452569	9.072508	0.000000	-0.158899	-0.443135	-0.352542	-0.295090	-0.589370	-0.374576	-0.261054	-1.077439	-0.374576	-0.181605	-1.077439	-0.308474	-0.147553	-0.903642	-0.286441	-0.090795	-0.686417	-0.264407	-1.134996	-5.012837	-1.960734	0.000000	0.000000	22.203973	7.669645	6.258283	12.285985	-14.951189	4.657565	119.323997	82.121581	7.531629	-1.745257	6.016331	-21.544412	36.079112	38.816576	87.862123	-8.195114	9.121969
1.018868	-3.502635	-2.649101	94.959123	0.158907	0.896544	0.585069	0.799983	-4.837531	-2.563495	4.506989	0.078662	19.134726	4.898243	0.000000	3.569028	2.456110	-6.339656	7.559897	0.131945	20.141913	8.725048	0.000000	-0.155435	-0.449705	-0.364235	-0.288659	-0.598107	-0.386999	-0.255365	-1.093412	-0.386999	-0.177647	-1.093412	-0.318705	-0.144337	-0.917038	-0.295941	-0.088816	-0.696593	-0.273176	-1.110258	-5.087150	-2.025764	0.000000	0.000000	22.319126	7.655642	6.087848	11.639333	-15.069150	4.860562	120.281245	82.398353	8.336972	-1.619029	5.886344	-21.659056	36.008354	38.849169	87.856050	-7.750384	9.373860
1.037736	-3.522665	-2.710582	95.221121	0.158642	0.896469	0.584859	0.736503	-4.825173	-2.106916	4.352028	0.075957	19.127334	4.207284	0.000000	3.668756	2.498475	-6.083483	7.625710	0.133094	19.804957	8.413191	0.000000	-0.149464	-0.454875	-0.367093	-0.277570	-0.604984	-0.390037	-0.245555	-1.105983	-0.390037	-0.170823	-1.105983	-0.321207	-0.138793	-0.927581	-0.298263	-0.085404	-0.704601	-0.275320	-1.067609	-5.145638	-2.041662	0.000000	0.000000	22.528920	7.592742	5.946929	11.057733	-15.073310	5.000484	120.738181	82.034343	8.766655	-1.078098	5.738329	-21.733012	35.911611	39.029950	87.877343	-7.621396	9.338676
1.056604	-3.546949	-2.763661	95.366995	0.158513	0.896416	0.584623	0.692365	-4.815777	-1.564052	4.237575	0.073960	19.106929	3.517447	0.000000	3.732884	2.542338	-5.944989	7.658375	0.133664	19.459405	8.130159	0.000000	-0.143442	-0.460421	-0.357996	-0.266386	-0.612359	-0.380371	-0.235661	-1.119467	-0.380371	-0.163940	-1.119467	-0.313247	-0.133200	-0.938890	-0.290872	-0.081963	-0.713191	-0.268497	-1.024591	-5.208370	-1.991068	0.000000	0.000000	22.802545	7.498417	5.843697	10.534377	-14.971529	5.078682	120.774781	81.061108	8.788956	-0.139916	5.598972	-21.778939	35.788363	39.356746	87.919667	-7.745315	9.056735
1.075472	-3.560819	-2.815055	95.436887	0.158457	0.896409	0.584351	0.661961	-4.798344	-1.011247	4.141028	0.072275	19.046228	2.864647	0.000000	3.772119	2.571874	-5.878593	7.663470	0.133753	19.134596	7.911706	0.000000	-0.135600	-0.465292	-0.338776	-0.251823	-0.618838	-0.359950	-0.222777	-1.131311	-0.359950	-0.154977	-1.131311	-0.296429	-0.125918	-0.948824	-0.275256	-0.077482	-0.720737	-0.254082	-0.968577	-5.263477	-1.884173	0.000000	0.000000	23.114588	7.375963	5.704110	10.013070	-14.788594	5.035955	120.378672	79.474042	8.644769	0.764339	5.530359	-21.788726	35.734063	39.771740	87.997124	-8.122609	8.577908
1.094340	-3.567997	-2.853834	95.393850	0.158519	0.896455	0.584075	0.654212	-4.777041	-0.474148	4.075755	0.071135	18.972889	2.307748	0.000000	3.772297	2.590441	-5.913155	7.636111	0.133275	18.825143	7.722655	0.000000	-0.128307	-0.469443	-0.300679	-0.238280	-0.624360	-0.319471	-0.210796	-1.141405	-0.319471	-0.146643	-1.141405	-0.263094	-0.119146	-0.957289	-0.244301	-0.073315	-0.727168	-0.225509	-0.916487	-5.310438	-1.672284	0.000000	0.000000	23.440530	7.266691	5.577150	9.498637	-14.582670	4.883318	119.602409	77.439098	8.172787	1.606205	5.563988	-21.762022	35.760432	40.238151	88.089852	-8.671322	7.875557
1.113208	-3.585807	-2.883578	95.246876	0.158704	0.896554	0.583815	0.678999	-4.775258	-0.035778	4.048328	0.070657	18.916876	1.957583	0.000000	3.739830	2.617685	-6.004192	7.580576	0.132306	18.531033	7.512691	0.000000	-0.121585	-0.475485	-0.243933	-0.225796	-0.632394	-0.259179	-0.199753	-1.156093	-0.259179	-0.138960	-1.156093	-0.213442	-0.112904	-0.969608	-0.198196	-0.069474	-0.736526	-0.182950	-0.868472	-5.378776	-1.356684	0.000000	0.000000	23.764684	7.188260	5.433452	8.992855	-14.361234	4.604309	118.418303	75.597057	7.379354	2.324842	5.687269	-21.707762	35.808738	40.753050	88.196104	-9.261589	7.039403
1.132075	-3.614618	-2.898878	94.978622	0.158996	0.896711	0.583603	0.740422	-4.794221	0.367481	4.063759	0.070926	18.882342	1.765190	0.000000	3.674533	2.654403	-6.200203	7.507066	0.131023	18.266637	7.297281	0.000000	-0.116619	-0.482904	-0.165486	-0.216573	-0.642263	-0.175829	-0.191593	-1.174134	-0.175829	-0.133284	-1.174134	-0.144801	-0.108292	-0.984738	-0.134458	-0.066636	-0.748019	-0.124115	-0.832996	-5.462710	-0.920385	0.000000	0.000000	24.067575	7.131203	5.272609	8.530069	-14.200342	4.283244	116.786333	74.213595	6.230533	3.092796	5.889628	-21.620673	35.906960	41.274361	88.287983	-9.894708	6.073772
1.150943	-3.639252	-2.912703	94.647803	0.159327	0.896924	0.583483	0.837131	-4.820503	0.644215	4.103465	0.071619	18.849098	1.778227	0.000000	3.599541	2.688477	-6.381876	7.415480	0.129425	18.037652	7.033858	0.000000	-0.112167	-0.490351	-0.071600	-0.208305	-0.652167	-0.076075	-0.184279	-1.192240	-0.076075	-0.128196	-1.192240	-0.062650	-0.104158	-0.999924	-0.058175	-0.064092	-0.759554	-0.053700	-0.801198	-5.546951	-0.398217	0.000000	0.000000	24.332358	7.134687	5.093323	8.131110	-14.094501	3.886637	114.580348	73.386169	5.079509	3.961238	6.137095	-21.494203	35.924722	41.830383	88.374768	-10.188356	5.309212
1.169811	-3.662431	-2.923995	94.254721	0.159658	0.897188	0.583485	0.973029	-4.859801	0.819193	4.177508	0.072911	18.829788	1.984629	0.000000	3.523225	2.723570	-6.608587	7.321592	0.127786	17.855398	6.772393	0.000000	-0.108715	-0.496782	0.031811	-0.201895	-0.660720	0.033800	-0.178608	-1.207875	0.033800	-0.124251	-1.207875	0.027835	-0.100953	-1.013037	0.025847	-0.062120	-0.769515	0.023859	-0.776542	-5.619693	0.176925	0.000000	0.000000	24.553467	7.165807	4.953301	7.901387	-14.116218	3.685347	111.654964	73.145131	3.591850	4.817223	6.387635	-21.355380	35.957748	42.398839	88.456454	-10.321556	4.587556
1.188679	-3.670246	-2.944640	93.879993	0.159883	0.897472	0.583649	1.140165	-4.894731	0.892283	4.270984	0.074543	18.803719	2.286387	0.000000	3.482161	2.745673	-6.816519	7.256574	0.126651	17.737344	6.544149	0.000000	-0.105636	-0.499420	0.127275	-0.196177	-0.664228	0.135230	-0.173549	-1.214289	0.135230	-0.120731	-1.214289	0.111366	-0.098094	-1.018417	0.103411	-0.060360	-0.773601	0.095456	-0.754548	-5.649537	0.707866	0.000000	0.000000	24.729574	7.208628	4.928955	7.920862	-14.238400	3.804969	107.987385	73.209976	1.883387	6.165879	6.602305	-21.225392	35.982171	43.012998	88.511560	-10.283253	3.980969
1.207547	-3.661602	-2.975427	93.543739	0.159966	0.897771	0.583959	1.331474	-4.924134	0.895424	4.382002	0.076480	18.759167	2.634049	0.000000	3.482805	2.753819	-7.031866	7.230838	0.126202	17.692182	6.394788	0.000000	-0.102783	-0.497253	0.206509	-0.190878	-0.661347	0.219416	-0.168862	-1.209022	0.219416	-0.117471	-1.209022	0.180696	-0.095444	-1.013999	0.167789	-0.058730	-0.770245	0.154882	-0.734168	-5.625028	1.148543	0.000000	0.000000	24.862907	7.225973	5.052579	8.238114	-14.440646	4.368251	103.541492	73.504263	-0.083738	7.862185	6.758332	-21.120017	36.060443	43.632064	88.542955	-10.336867	3.258106
1.226415	-3.633733	-3.007277	93.259487	0.159913	0.898095	0.584405	1.536776	-4.945965	0.761657	4.520121	0.078891	18.709045	3.106459	0.000000	3.511771	2.743007	-7.265556	7.233768	0.126253	17.742781	6.367462	0.000000	-0.101703	-0.489768	0.266266	-0.188872	-0.651391	0.282908	-0.167087	-1.190822	0.282908	-0.116236	-1.190822	0.232983	-0.094441	-0.998735	0.216341	-0.058113	-0.758650	0.199700	-0.726452	-5.540352	1.480894	0.000000	0.000000	24.938550	7.227433	5.354421	8.841752	-14.693396	5.385324	98.391736	74.122659	-2.286000	9.639732	6.861516	-21.054622	36.247939	44.244757	88.565223	-10.656793	2.312447
1.245283	-3.587560	-3.046314	93.082798	0.159658	0.898437	0.584948	1.717280	-4.946747	0.756045	4.614981	0.080547	18.572906	3.276618	0.000000	3.583508	2.722944	-7.384756	7.277039	0.127008	17.855097	6.339280	0.000000	-0.101117	-0.477293	0.298667	-0.187784	-0.634800	0.317334	-0.166125	-1.160491	0.317334	-0.115567	-1.160491	0.261334	-0.093897	-0.973296	0.242667	-0.057778	-0.739327	0.224000	-0.722268	-5.399236	1.661096	0.000000	0.000000	24.952357	7.190700	5.781736	9.666326	-14.989680	6.824740	92.761498	74.933531	-4.706693	11.486364	6.948478	-21.038406	36.641374	44.828072	88.566311	-11.316875	1.115077
